<svg xmlns="http://www.w3.org/2000/svg" width="1200" height="800" viewBox="0 0 1200 800">
  <defs>
    
  </defs>

  <!-- Background -->
  <rect width="1200" height="800" fill="#FFFFFF"/>
  

  <!-- Top rule -->
  <line x1="60" y1="60" x2="1140" y2="60" stroke="#0D0D0D" stroke-width="1" opacity="0.15"/>

  <!-- Header -->
  <text x="60" y="52" font-family="monospace" font-size="10" fill="#888888" letter-spacing="0.14em" opacity="0.7">SCHWEP DESIGN DNA</text>
  <text x="1140" y="52" font-family="monospace" font-size="10" fill="#888888" text-anchor="end" letter-spacing="0.06em" opacity="0.5">v1.0</text>

  <!-- Archetype -->
  <text x="60" y="160" font-family="Georgia, serif" font-size="72" font-weight="bold" fill="#0D0D0D" letter-spacing="-2">Structured Signal</text>

  <!-- Frame + tone sub -->
  <text x="60" y="196" font-family="monospace" font-size="13" fill="#FF4D00" letter-spacing="0.08em">Bento Grid  ·  Bold Tech</text>

  <!-- Tag pills -->
  
    <rect x="60" y="224" width="142" height="28" rx="14" fill="#F5F5F5" stroke="#888888" stroke-width="0.5" stroke-opacity="0.3"/>
    <rect x="60" y="224" width="51" height="28" rx="14" fill="#FF4D00" opacity="0.15"/>
    <text x="85.5" y="242" font-family="monospace" font-size="10" fill="#FF4D00" text-anchor="middle" font-weight="bold" letter-spacing="0.06em">FRAME</text>
    <text x="156.5" y="242" font-family="monospace" font-size="10" fill="#0D0D0D" text-anchor="middle" opacity="0.75">Bento Grid</text>
    <rect x="218" y="224" width="164.5" height="28" rx="14" fill="#F5F5F5" stroke="#888888" stroke-width="0.5" stroke-opacity="0.3"/>
    <rect x="218" y="224" width="51" height="28" rx="14" fill="#FF4D00" opacity="0.15"/>
    <text x="243.5" y="242" font-family="monospace" font-size="10" fill="#FF4D00" text-anchor="middle" font-weight="bold" letter-spacing="0.06em">SHAPE</text>
    <text x="325.75" y="242" font-family="monospace" font-size="10" fill="#0D0D0D" text-anchor="middle" opacity="0.75">Round Corners</text>
    <rect x="398.5" y="224" width="127.5" height="28" rx="14" fill="#F5F5F5" stroke="#888888" stroke-width="0.5" stroke-opacity="0.3"/>
    <rect x="398.5" y="224" width="44" height="28" rx="14" fill="#FF4D00" opacity="0.15"/>
    <text x="420.5" y="242" font-family="monospace" font-size="10" fill="#FF4D00" text-anchor="middle" font-weight="bold" letter-spacing="0.06em">TONE</text>
    <text x="484.25" y="242" font-family="monospace" font-size="10" fill="#0D0D0D" text-anchor="middle" opacity="0.75">Bold Tech</text>
  
    <rect x="60" y="260" width="171.5" height="28" rx="14" fill="#F5F5F5" stroke="#888888" stroke-width="0.5" stroke-opacity="0.3"/>
    <rect x="60" y="260" width="58" height="28" rx="14" fill="#FF4D00" opacity="0.15"/>
    <text x="89" y="278" font-family="monospace" font-size="10" fill="#FF4D00" text-anchor="middle" font-weight="bold" letter-spacing="0.06em">FINISH</text>
    <text x="174.75" y="278" font-family="monospace" font-size="10" fill="#0D0D0D" text-anchor="middle" opacity="0.75">Clean Minimal</text>
    <rect x="247.5" y="260" width="104" height="28" rx="14" fill="#F5F5F5" stroke="#888888" stroke-width="0.5" stroke-opacity="0.3"/>
    <rect x="247.5" y="260" width="58" height="28" rx="14" fill="#FF4D00" opacity="0.15"/>
    <text x="276.5" y="278" font-family="monospace" font-size="10" fill="#FF4D00" text-anchor="middle" font-weight="bold" letter-spacing="0.06em">RADIUS</text>
    <text x="328.5" y="278" font-family="monospace" font-size="10" fill="#0D0D0D" text-anchor="middle" opacity="0.75">12px</text>

  <!-- Divider -->
  <line x1="620" y1="100" x2="620" y2="720" stroke="#0D0D0D" stroke-width="0.5" opacity="0.12"/>

  <!-- DNA Vector -->
  <text x="660" y="310" font-family="monospace" font-size="10" fill="#888888" letter-spacing="0.14em" opacity="0.7">DNA VECTOR</text>
  <line x1="660" y1="320" x2="1020" y2="320" stroke="#0D0D0D" stroke-width="0.5" opacity="0.12"/>
  
    <text x="660" y="338" font-family="monospace" font-size="11" fill="#888888" letter-spacing="0.05em">FRAME</text>
    <rect x="660" y="344" width="320" height="10" rx="5" fill="#F5F5F5" stroke="#888888" stroke-width="0.5" stroke-opacity="0.4"/>
    <rect x="660" y="344" width="288" height="10" rx="5" fill="#FF4D00"/>
    <text x="990" y="353" font-family="monospace" font-size="11" fill="#888888">90%</text>
    <text x="660" y="366" font-family="monospace" font-size="11" fill="#888888" letter-spacing="0.05em">PALETTE</text>
    <rect x="660" y="372" width="320" height="10" rx="5" fill="#F5F5F5" stroke="#888888" stroke-width="0.5" stroke-opacity="0.4"/>
    <rect x="660" y="372" width="240" height="10" rx="5" fill="#FF4D00"/>
    <text x="990" y="381" font-family="monospace" font-size="11" fill="#888888">75%</text>
    <text x="660" y="394" font-family="monospace" font-size="11" fill="#888888" letter-spacing="0.05em">TONE</text>
    <rect x="660" y="400" width="320" height="10" rx="5" fill="#F5F5F5" stroke="#888888" stroke-width="0.5" stroke-opacity="0.4"/>
    <rect x="660" y="400" width="224" height="10" rx="5" fill="#FF4D00"/>
    <text x="990" y="409" font-family="monospace" font-size="11" fill="#888888">70%</text>
    <text x="660" y="422" font-family="monospace" font-size="11" fill="#888888" letter-spacing="0.05em">FINISH</text>
    <rect x="660" y="428" width="320" height="10" rx="5" fill="#F5F5F5" stroke="#888888" stroke-width="0.5" stroke-opacity="0.4"/>
    <rect x="660" y="428" width="64" height="10" rx="5" fill="#FF4D00"/>
    <text x="990" y="437" font-family="monospace" font-size="11" fill="#888888">20%</text>
    <text x="660" y="450" font-family="monospace" font-size="11" fill="#888888" letter-spacing="0.05em">ARCHETYPE</text>
    <rect x="660" y="456" width="320" height="10" rx="5" fill="#F5F5F5" stroke="#888888" stroke-width="0.5" stroke-opacity="0.4"/>
    <rect x="660" y="456" width="208" height="10" rx="5" fill="#FF4D00"/>
    <text x="990" y="465" font-family="monospace" font-size="11" fill="#888888">65%</text>
    <text x="660" y="478" font-family="monospace" font-size="11" fill="#888888" letter-spacing="0.05em">TEXTURE</text>
    <rect x="660" y="484" width="320" height="10" rx="5" fill="#F5F5F5" stroke="#888888" stroke-width="0.5" stroke-opacity="0.4"/>
    <rect x="660" y="484" width="272" height="10" rx="5" fill="#FF4D00"/>
    <text x="990" y="493" font-family="monospace" font-size="11" fill="#888888">85%</text>

  <!-- Palette -->
  <line x1="60" y1="455" x2="1140" y2="455" stroke="#0D0D0D" stroke-width="0.5" opacity="0.12"/>
  <text x="60" y="448" font-family="monospace" font-size="10" fill="#888888" letter-spacing="0.14em" opacity="0.7">PALETTE</text>
  
    <rect x="60" y="480" width="48" height="48" rx="12" fill="#FFFFFF" stroke="#0D0D0D" stroke-width="0.5" stroke-opacity="0.15"/>
    <text x="84" y="544" font-family="monospace" font-size="10" fill="#888888" text-anchor="middle">#FFFFFF</text>
    <text x="84" y="556" font-family="monospace" font-size="9" fill="#888888" text-anchor="middle" opacity="0.6">White</text>
    <rect x="124" y="480" width="48" height="48" rx="12" fill="#0D0D0D" stroke="#0D0D0D" stroke-width="0.5" stroke-opacity="0.15"/>
    <text x="148" y="544" font-family="monospace" font-size="10" fill="#888888" text-anchor="middle">#0D0D0D</text>
    <text x="148" y="556" font-family="monospace" font-size="9" fill="#888888" text-anchor="middle" opacity="0.6">Ink</text>
    <rect x="188" y="480" width="48" height="48" rx="12" fill="#FF4D00" stroke="#0D0D0D" stroke-width="0.5" stroke-opacity="0.15"/>
    <text x="212" y="544" font-family="monospace" font-size="10" fill="#888888" text-anchor="middle">#FF4D00</text>
    <text x="212" y="556" font-family="monospace" font-size="9" fill="#888888" text-anchor="middle" opacity="0.6">Flame</text>
    <rect x="252" y="480" width="48" height="48" rx="12" fill="#F5F5F5" stroke="#0D0D0D" stroke-width="0.5" stroke-opacity="0.15"/>
    <text x="276" y="544" font-family="monospace" font-size="10" fill="#888888" text-anchor="middle">#F5F5F5</text>
    <text x="276" y="556" font-family="monospace" font-size="9" fill="#888888" text-anchor="middle" opacity="0.6">Mist</text>
    <rect x="316" y="480" width="48" height="48" rx="12" fill="#888888" stroke="#0D0D0D" stroke-width="0.5" stroke-opacity="0.15"/>
    <text x="340" y="544" font-family="monospace" font-size="10" fill="#888888" text-anchor="middle">#888888</text>
    <text x="340" y="556" font-family="monospace" font-size="9" fill="#888888" text-anchor="middle" opacity="0.6">Slate</text>

  <text x="84" y="570" font-family="monospace" font-size="8" fill="#FF4D00" text-anchor="middle" letter-spacing="0.06em" opacity="0.8">BACKGROUND</text><text x="148" y="570" font-family="monospace" font-size="8" fill="#FF4D00" text-anchor="middle" letter-spacing="0.06em" opacity="0.8">PRIMARY</text><text x="212" y="570" font-family="monospace" font-size="8" fill="#FF4D00" text-anchor="middle" letter-spacing="0.06em" opacity="0.8">ACCENT</text><text x="276" y="570" font-family="monospace" font-size="8" fill="#FF4D00" text-anchor="middle" letter-spacing="0.06em" opacity="0.8">SURFACE</text><text x="340" y="570" font-family="monospace" font-size="8" fill="#FF4D00" text-anchor="middle" letter-spacing="0.06em" opacity="0.8">MUTED</text>

  <!-- Footer -->
  <line x1="60" y1="752" x2="1140" y2="752" stroke="#0D0D0D" stroke-width="1" opacity="0.1"/>
  <text x="60" y="770" font-family="monospace" font-size="9" fill="#888888" opacity="0.4" letter-spacing="0.06em">schwep.io · EXTRACTED DESIGN SPECIFICATION</text>
  <text x="1140" y="770" font-family="monospace" font-size="9" fill="#888888" text-anchor="end" opacity="0.4">2026-03-08</text>

</svg>